PathFileType	4	(X/Y/Z)	./resultDataOpenSim/trcMotMarkerGrf/sub06/qtm-03-08.trc
DataRate	CameraRate	NumFrames	NumMarkers	Units	OrigDataRate	OrigDataStartFrame	OrigNumFrames
250.000000	250.000000	14	24	m	250.000000	193	512
Frame#	Time	L.Toe.Tip			R.Toe.Tip			L.Ankle.Lat			R.Ankle.Lat			L.Ankle.Med			R.Ankle.Med			L.Heel			R.Heel			L.Knee.Lat			R.Knee.Lat			L.Knee.Med			R.Knee.Med			L.Thigh.Upper			R.Thigh.Upper			L.ASIS			R.ASIS			V.Sacral			L.Acromium			R.Acromium			C7			L.Elbow			R.Elbow			L.Wrist.Lat			R.Wrist.Lat
		X1	Y1	Z1	X2	Y2	Z2	X3	Y3	Z3	X4	Y4	Z4	X5	Y5	Z5	X6	Y6	Z6	X7	Y7	Z7	X8	Y8	Z8	X9	Y9	Z9	X10	Y10	Z10	X11	Y11	Z11	X12	Y12	Z12	X13	Y13	Z13	X14	Y14	Z14	X15	Y15	Z15	X16	Y16	Z16	X17	Y17	Z17	X18	Y18	Z18	X19	Y19	Z19	X20	Y20	Z20	X21	Y21	Z21	X22	Y22	Z22	X23	Y23	Z23	X24	Y24	Z24

193	0.768	0.070363986	-0.015064019	-0.027390392	-0.61337266	0.079856093	0.15299307	-0.052961657	0.015644773	-0.044895007	-0.61813031	0.21492482	0.1868939	-0.048882674	0.030482512	0.042576676	-0.58246973	0.20418051	0.10545117	-0.1274065	-0.010299235	0.0035592367	-0.64398896	0.26203903	0.12599438	0.020195176	0.38013075	-0.078256488	-0.25299417	0.31980614	0.22176288	-0.00098454957	0.37882991	0.042712732	-0.26331952	0.30753881	0.090819712	-0.15991224	0.73419109	-0.13135253	-0.23962509	0.67891103	0.20240125	-0.10451357	0.76643097	-0.073358059	-0.13311397	0.73925004	0.16960678	-0.30741338	0.83243387	0.041401114	-0.1738047	1.2287833	-0.15653434	-0.16809118	1.2300345	0.20767131	-0.24956223	1.2722544	0.025041538	-0.27775203	0.92861953	-0.18747996	-0.24224524	0.92023596	0.29160078	-0.17782977	0.71207621	-0.25007677	-0.0510193	0.75954278	0.30704178
194	0.772	0.070264305	-0.015061917	-0.027623148	-0.59771724	0.082105162	0.15442574	-0.053046029	0.015671191	-0.045002809	-0.60314464	0.21765997	0.18692174	-0.048828125	0.030627187	0.042391424	-0.56778605	0.20672733	0.10533926	-0.12755163	-0.010284512	0.003578224	-0.62956565	0.26444985	0.12589096	0.021832333	0.38008736	-0.078857577	-0.23852513	0.32104003	0.2215611	0.00065418556	0.37900862	0.042218469	-0.24990864	0.30944469	0.090619328	-0.15578593	0.73515327	-0.13177773	-0.23356759	0.68108317	0.20228246	-0.099594815	0.76755795	-0.07412537	-0.12725084	0.74147173	0.16945634	-0.30153728	0.83472673	0.041142213	-0.16659267	1.2309435	-0.15650454	-0.16175327	1.2320053	0.20796613	-0.24252368	1.2745334	0.025083185	-0.27028411	0.93033739	-0.18804447	-0.2369251	0.922228	0.29093297	-0.16701997	0.71485576	-0.24954084	-0.048251871	0.75915405	0.30710354
195	0.776	0.070172255	-0.01505369	-0.027819263	-0.58207397	0.084196448	0.15581215	-0.053138245	0.015693969	-0.045091011	-0.58799529	0.22017749	0.18696456	-0.048884663	0.030729553	0.042210673	-0.55303547	0.20907567	0.10518036	-0.12769955	-0.010240639	0.0035432472	-0.61510876	0.26667825	0.12582364	0.023253669	0.38009066	-0.079381417	-0.2240278	0.32254141	0.22124775	0.0025060014	0.37922506	0.041873264	-0.23644056	0.31136056	0.090190116	-0.15183853	0.73622508	-0.13223007	-0.22735952	0.68338026	0.20203978	-0.094704554	0.76875326	-0.074907791	-0.12137345	0.74375586	0.16925405	-0.29573789	0.83707415	0.040893748	-0.15953415	1.2332305	-0.15641997	-0.1554668	1.2340598	0.2082904	-0.23556492	1.2768601	0.025193849	-0.26284754	0.9321528	-0.18863509	-0.23164581	0.92432502	0.29032135	-0.15617133	0.71779602	-0.24892669	-0.045588523	0.75891646	0.30715554
196	0.78	0.070080148	-0.01504092	-0.027985789	-0.5663611	0.08626782	0.15710529	-0.053244693	0.015716308	-0.045160572	-0.57273052	0.22246197	0.187044	-0.049000564	0.030798303	0.042065661	-0.53819184	0.21125997	0.10503529	-0.12783054	-0.01018917	0.0034951233	-0.60059771	0.26872034	0.12580576	0.024479492	0.38012251	-0.079821006	-0.20949171	0.32430756	0.22083433	0.004424718	0.37946613	0.041605928	-0.22288661	0.31330721	0.08959229	-0.14814916	0.73738517	-0.13273951	-0.22103982	0.68579886	0.20174624	-0.089758485	0.77003859	-0.075727555	-0.11547554	0.74609351	0.16899565	-0.28988192	0.83948316	0.040817255	-0.1526129	1.2356362	-0.15626551	-0.14923002	1.2361856	0.20862958	-0.22868167	1.2792278	0.025361395	-0.25544867	0.93406856	-0.18924454	-0.22642073	0.92655263	0.28976237	-0.14525918	0.72090375	-0.24821213	-0.043027778	0.75882957	0.30720194
197	0.784	0.069983008	-0.015024196	-0.028123867	-0.5504662	0.088358153	0.15826721	-0.05336498	0.015742676	-0.045216696	-0.55739381	0.22452669	0.18716834	-0.04914942	0.030844489	0.041955713	-0.52326201	0.21333318	0.10496298	-0.1279409	-0.010154118	0.0034782341	-0.58603538	0.2705802	0.12586368	0.025528722	0.38015491	-0.080163792	-0.19492972	0.3263245	0.22033212	0.0062886336	0.379713	0.04137963	-0.20923894	0.31531369	0.08889503	-0.14461203	0.7386508	-0.1333012	-0.21463644	0.68832264	0.20148068	-0.084717919	0.77143932	-0.076597362	-0.10955806	0.74847985	0.16868263	-0.28389288	0.84198122	0.041030554	-0.1458044	1.2381409	-0.15602742	-0.1430349	1.2383677	0.20896457	-0.22187451	1.2816354	0.025579801	-0.24808959	0.93608673	-0.18987549	-0.22128638	0.9289324	0.28925095	-0.13429891	0.72417569	-0.24740461	-0.040570199	0.7588882	0.30724645
198	0.788	0.069884495	-0.015005479	-0.028215717	-0.5342923	0.090421889	0.15927058	-0.053498316	0.015775024	-0.045267465	-0.54201164	0.22640495	0.18733831	-0.049306169	0.030886247	0.041870455	-0.50824817	0.21531927	0.10497948	-0.1280418	-0.010138165	0.0034930266	-0.57143377	0.27226485	0.12601814	0.026424522	0.38016875	-0.080381504	-0.1803638	0.32858115	0.21975044	0.0080490364	0.37996048	0.041211109	-0.19552527	0.31740377	0.088140105	-0.14095518	0.74007537	-0.13385902	-0.20818201	0.69093003	0.20133683	-0.079606371	0.77297106	-0.07749782	-0.10362206	0.75091283	0.16831508	-0.27782229	0.84460132	0.041459017	-0.13909167	1.2407286	-0.15570717	-0.13686195	1.240595	0.20927827	-0.21514092	1.2840767	0.025842733	-0.24075393	0.93820357	-0.19055002	-0.21624998	0.931466	0.28878123	-0.12338173	0.72758553	-0.24655723	-0.038212965	0.75908386	0.30729437
199	0.792	0.069798649	-0.014990418	-0.028233828	-0.51779914	0.092378031	0.16010975	-0.053643812	0.01581391	-0.045316623	-0.5265905	0.22812634	0.1875605	-0.04941788	0.030950723	0.04181651	-0.49310496	0.21718637	0.10502541	-0.128144	-0.010131113	0.0035140592	-0.55680778	0.27375341	0.12625654	0.027210662	0.38016593	-0.080432033	-0.1658072	0.33107835	0.21910011	0.0096663845	0.38020622	0.041129198	-0.18180226	0.31960265	0.087320896	-0.13696281	0.74169577	-0.13435121	-0.20169396	0.69359915	0.20136694	-0.074480569	0.7746296	-0.07838641	-0.097662239	0.75339208	0.16788809	-0.27179189	0.84733321	0.041884949	-0.13248112	1.2434076	-0.15533004	-0.13068848	1.2428601	0.20956657	-0.20847289	1.2865407	0.02614324	-0.23340738	0.94041616	-0.19130232	-0.21128314	0.93413205	0.28834834	-0.11260416	0.73110489	-0.24572201	-0.035949413	0.75940983	0.30735325
200	0.796	0.069743744	-0.014981069	-0.028179159	-0.50100418	0.094161359	0.16080336	-0.053796471	0.015861715	-0.045359991	-0.51112843	0.22970273	0.18783546	-0.049482604	0.031046909	0.041790075	-0.47779036	0.21888501	0.10502257	-0.12825005	-0.010124381	0.003520883	-0.54219178	0.27499763	0.12653946	0.027951561	0.38016603	-0.080311799	-0.15126864	0.33382247	0.21839306	0.011091608	0.38044579	0.041152956	-0.16809941	0.32196581	0.086420925	-0.1326258	0.74349474	-0.13475447	-0.19516878	0.69631621	0.20153397	-0.069381084	0.77640014	-0.079223363	-0.091669266	0.75592218	0.16740091	-0.2658733	0.85010684	0.042156494	-0.12598926	1.2461988	-0.15492924	-0.1245002	1.2451576	0.20983576	-0.20186023	1.2890203	0.0264754	-0.22603756	0.94272626	-0.19212801	-0.20637278	0.93689992	0.28794654	-0.1019527	0.73473738	-0.24488769	-0.033769976	0.75986627	0.30743084
201	0.8	0.06971292	-0.014974392	-0.028105299	-0.48394638	0.095753182	0.16138141	-0.053946652	0.01592166	-0.045389746	-0.49563226	0.23113108	0.18813119	-0.049595866	0.031147294	0.041754169	-0.46237212	0.22042524	0.10498692	-0.12835412	-0.010113865	0.0035107897	-0.52765977	0.27597534	0.12684392	0.028714164	0.38019286	-0.080082761	-0.13676362	0.3368151	0.21763859	0.012282362	0.38067289	0.041290024	-0.15439532	0.32456611	0.085448963	-0.12806372	0.74541543	-0.13508248	-0.18858909	0.69907748	0.20175333	-0.06431482	0.77827191	-0.079987509	-0.085636392	0.7585111	0.1668655	-0.26006041	0.8528375	0.042285691	-0.11960925	1.2491	-0.15451938	-0.11829074	1.247481	0.21008911	-0.19529483	1.2915153	0.026831078	-0.21869921	0.94513015	-0.19294132	-0.20154028	0.93974427	0.28756603	-0.091328511	0.73850971	-0.24399356	-0.031662816	0.76045672	0.30753365
202	0.804	0.069651065	-0.014981866	-0.028075318	-0.46665302	0.09718145	0.16187953	-0.054085306	0.015993233	-0.045400821	-0.48012237	0.23239491	0.18839846	-0.049836355	0.031219792	0.041678959	-0.44699269	0.22186261	0.10500816	-0.12844518	-0.01009646	0.0034998737	-0.51327063	0.27669635	0.12717116	0.029521542	0.38026137	-0.079801966	-0.1223112	0.3400496	0.21684481	0.013216757	0.38087916	0.041539625	-0.14067064	0.32744041	0.084409297	-0.12339317	0.74739472	-0.13536691	-0.18190825	0.70188776	0.2019627	-0.059259287	0.78024202	-0.080675751	-0.079562234	0.76116091	0.16629984	-0.25433882	0.85547964	0.042349678	-0.11330763	1.2520815	-0.15409829	-0.11205992	1.2498195	0.21032334	-0.1887722	1.2940246	0.027197655	-0.21145445	0.94760988	-0.19368263	-0.1968008	0.94264682	0.28719371	-0.080668803	0.74243312	-0.24299704	-0.02961569	0.76117657	0.30766762
203	0.808	0.069520096	-0.015013098	-0.028102957	-0.44912035	0.098495079	0.16234546	-0.054209701	0.016072204	-0.0453937	-0.46461848	0.2334647	0.18861779	-0.050158818	0.03126533	0.041583861	-0.43170725	0.22320278	0.10511297	-0.1285126	-0.010070214	0.0035133889	-0.49899399	0.27715259	0.12751018	0.030335897	0.380372	-0.079466104	-0.10792928	0.34351554	0.21601883	0.013897855	0.38105433	0.041893752	-0.12694522	0.33057577	0.083303741	-0.11869882	0.74937542	-0.13563777	-0.17503401	0.70476346	0.20212342	-0.054161073	0.78230802	-0.081294047	-0.073450222	0.76386533	0.16571865	-0.24872029	0.85803201	0.042368676	-0.10704776	1.2551111	-0.15366473	-0.10581567	1.2521619	0.21053779	-0.18228735	1.2965407	0.027563422	-0.20424268	0.95013535	-0.19448652	-0.19214024	0.94559275	0.28681467	-0.069979568	0.74648783	-0.24190205	-0.027609718	0.7620082	0.30783942
204	0.812	0.069364771	-0.015043029	-0.028155883	-0.43132273	0.099724186	0.16282876	-0.054324655	0.016155679	-0.045372751	-0.44912865	0.23431272	0.18880316	-0.050453709	0.031307889	0.041514564	-0.41645359	0.22439179	0.10524812	-0.12855682	-0.010036744	0.0035618408	-0.4847538	0.2773213	0.12783431	0.031121422	0.38051667	-0.079048298	-0.09363479	0.34720549	0.21516204	0.014343452	0.38118599	0.04233549	-0.11323499	0.33392019	0.08220414	-0.11401791	0.75131787	-0.13588032	-0.16791116	0.70772381	0.20222984	-0.048942936	0.78445919	-0.08185205	-0.067306042	0.76661877	0.16513409	-0.2432126	0.8605019	0.042260737	-0.10080074	1.2581681	-0.15322145	-0.099565165	1.2545029	0.21073844	-0.17583158	1.2990514	0.027923426	-0.19692236	0.95267799	-0.19555131	-0.18754054	0.94856557	0.28641723	-0.059285975	0.75063832	-0.24073483	-0.025612056	0.76292947	0.30805458
205	0.816	0.069244341	-0.015049327	-0.02819457	-0.41326679	0.10085036	0.16334382	-0.054438288	0.016245038	-0.04534258	-0.4336553	0.23492894	0.18896293	-0.050666525	0.031361037	0.041493509	-0.40116876	0.22539306	0.10536566	-0.1285956	-0.010000212	0.003626266	-0.470506	0.27719466	0.12812588	0.031876649	0.3806862	-0.07854086	-0.079441262	0.35111646	0.21427042	0.01456747	0.381258	0.042837039	-0.099532115	0.33739683	0.081225161	-0.10926964	0.75322114	-0.13599381	-0.1606708	0.71076195	0.20237363	-0.043564504	0.78667417	-0.082361203	-0.061133587	0.76942065	0.16455565	-0.23775021	0.8628909	0.041905624	-0.094546416	1.2612407	-0.15277335	-0.093308874	1.2568401	0.21093292	-0.16939758	1.3015462	0.028278548	-0.18948627	0.95523525	-0.19679959	-0.183002	0.95154538	0.28599905	-0.048610743	0.75485743	-0.23951548	-0.023591544	0.76392899	0.3083116
206	0.82	0.069157396	-0.015044873	-0.028204297	-0.39501542	0.10182673	0.16386373	-0.054556218	0.016345022	-0.045305702	-0.41820007	0.23531713	0.18908689	-0.05081528	0.031420081	0.041511385	-0.38586015	0.22620965	0.10543192	-0.12865027	-0.0099659429	0.0036804489	-0.45623647	0.27677262	0.12837837	0.032600125	0.38086862	-0.077957846	-0.065358335	0.35524571	0.21333688	0.01455853	0.38124791	0.043354157	-0.085871042	0.34097488	0.080342051	-0.10429645	0.75510518	-0.13586278	-0.1535366	0.71383341	0.20267176	-0.038140746	0.788918	-0.082823306	-0.054934538	0.7722712	0.16398638	-0.23215773	0.86522525	0.041346403	-0.088280909	1.2643204	-0.15232381	-0.087051209	1.2591635	0.21112557	-0.16298464	1.3040158	0.028634709	-0.1820883	0.95782687	-0.19791753	-0.17853384	0.95451485	0.28556357	-0.037986391	0.75913415	-0.23825302	-0.021550997	0.76501246	0.30860209
